<svg width="114" height="114" viewBox="0 0 114 114" fill="none" xmlns="http://www.w3.org/2000/svg">
<path d="M57 114C88.4802 114 114 88.4802 114 57C114 25.5198 88.4802 0 57 0C25.5198 0 0 25.5198 0 57C0 88.4802 25.5198 114 57 114Z" fill="#0063DD" fill-opacity="0.23"/>
<path d="M57 92C76.33 92 92 76.33 92 57C92 37.67 76.33 22 57 22C37.67 22 22 37.67 22 57C22 76.33 37.67 92 57 92Z" fill="#0063DD"/>
<path d="M55.9394 79.0607C56.5252 79.6464 57.475 79.6464 58.0608 79.0607L67.6067 69.5147C68.1925 68.9289 68.1925 67.9792 67.6067 67.3934C67.0209 66.8076 66.0712 66.8076 65.4854 67.3934L57.0001 75.8787L48.5148 67.3934C47.929 66.8076 46.9793 66.8076 46.3935 67.3934C45.8077 67.9792 45.8077 68.9289 46.3935 69.5147L55.9394 79.0607ZM55.5001 35V78H58.5001V35H55.5001Z" fill="white"/>
</svg>
